PathFileType	4	(X/Y/Z)	P:\Projects\LMB_grand_challenge_database\project_only\opensim\experimental_data\SixthCompetition/DM_smooth1_new.trc
DataRate	CameraRate	NumFrames	NumMarkers	Units	OrigDataRate	OrigDataStartFrame	OrigNumFrames
120	120	6	68	mm	120	185	370
Frame#	Time	Sternum			Neck			R_Shoulder			L_Shoulder			Xiphoid			Thoracic			R_Asis			L_Asis			R_Psis			L_Psis			Lumbar			R_Elbow			R_ElbowMedial			R_ShoulderAnterior			R_ShoulderPosterior			R_Wrist			R_Radius			R_Ulna			L_Elbow			L_ElbowMedial			L_ShoulderAnterior			L_ShoulderPosterior			L_Wrist			L_Ulna			L_Radius			L_Thigh_Superior			L_Thigh_Inferior			L_Thigh_Lateral			L_Knee_Lateral			L_Knee_Medial			L_Patella			L_Shank_Superior			L_Shank_Inferior			L_Shank_Lateral			L_Ankle_Lateral			L_Ankle_Medial			R_Thigh_Superior			R_Thigh_Inferior			R_Thigh_Lateral			R_Knee_Lateral			R_Knee_Medial			R_Patella			R_Shank_Superior			R_Shank_Inferior			R_Shank_Lateral			R_Ankle_Lateral			RankleMedial			R_Heel			R_Toe			R_Midfoot_Medial			R_Midfoot_Lateral			R_Hindfoot			R_Midfoot_Superior			R_ToeMedial			R_ToeLateral			L_Heel			L_Toe			L_Midfoot_Medial			L_Midfoot_Lateral			L_Hindfoot			L_Midfoot_Superior			L_ToeMedial			L_ToeLateral			Oglobal			Sacral			Xglobal			Yglobal			Zglobal			
		X1	Y1	Z1	X2	Y2	Z2	X3	Y3	Z3	X4	Y4	Z4	X5	Y5	Z5	X6	Y6	Z6	X7	Y7	Z7	X8	Y8	Z8	X9	Y9	Z9	X10	Y10	Z10	X11	Y11	Z11	X12	Y12	Z12	X13	Y13	Z13	X14	Y14	Z14	X15	Y15	Z15	X16	Y16	Z16	X17	Y17	Z17	X18	Y18	Z18	X19	Y19	Z19	X20	Y20	Z20	X21	Y21	Z21	X22	Y22	Z22	X23	Y23	Z23	X24	Y24	Z24	X25	Y25	Z25	X26	Y26	Z26	X27	Y27	Z27	X28	Y28	Z28	X29	Y29	Z29	X30	Y30	Z30	X31	Y31	Z31	X32	Y32	Z32	X33	Y33	Z33	X34	Y34	Z34	X35	Y35	Z35	X36	Y36	Z36	X37	Y37	Z37	X38	Y38	Z38	X39	Y39	Z39	X40	Y40	Z40	X41	Y41	Z41	X42	Y42	Z42	X43	Y43	Z43	X44	Y44	Z44	X45	Y45	Z45	X46	Y46	Z46	X47	Y47	Z47	X48	Y48	Z48	X49	Y49	Z49	X50	Y50	Z50	X51	Y51	Z51	X52	Y52	Z52	X53	Y53	Z53	X54	Y54	Z54	X55	Y55	Z55	X56	Y56	Z56	X57	Y57	Z57	X58	Y58	Z58	X59	Y59	Z59	X60	Y60	Z60	X61	Y61	Z61	X62	Y62	Z62	X63	Y63	Z63	X64	Y64	Z64	X65	Y65	Z65	X66	Y66	Z66	X67	Y67	Z67	X68	Y68	Z68	

186	2.641667	212.449	1359.74	237.357	43.2637	1417.53	235.179	141.868	1369.32	411.013	134.377	1381.82	60.5509	247.608	1187	236.544	-27.4032	1232.22	217.687	159.723	946.325	352.972	181.665	958.5119999999999	78.7723	-36.3203	985.098	231.532	-31.4946	985.242	153.546	-32.7086	1034.46	197.357	63.6655	1056.51	491.808	-0	0	0	-0	0	0	-0	0	0	91.24379999999999	779.438	489.905	106.917	783.884	450.412	44.4655	788.46	488.196	242.826	1064.55	-30.148	-0	0	0	-0	0	0	-0	0	0	438.892	884.623	15.7126	395.983	868.88	-4.03488	419.869	902.711	57.4158	82.39490000000001	775.222	47.0943	44.6461	556.5549999999999	89.04340000000001	115.387	634.626	106.347	-0	0	0	-0	0	0	42.4863	441.627	147.629	-55.7443	424.226	79.0744	-241.458	225.789	76.3956	-126.459	297.419	148.416	-0	0	0	-0	0	0	120.398	771.175	373.755	227.04	580.869	335.413	240.785	722.388	357.699	-0	0	0	-0	0	0	332.873	530.232	269.895	249.164	388.113	351.937	295.851	185.423	339.381	331.94	320.733	269.201	-0	0	0	-0	0	0	238.124	59.9708	286.129	536.128	67.0802	287.794	461.478	43.3216	234.633	450.489	35.8964	351.151	339.948	28.4131	338.4	396.459	124.925	292.31	501.641	53.1021	245.044	496.75	49.1391	336.021	-379.43	157.373	126.478	-119.777	36.4458	127.831	-197.583	33.0276	177.834	-208.061	35.9037	63.8691	-306.586	79.3831	70.58069999999999	-205.603	133.007	122.081	-161.957	28.7468	169.05	-158.543	26.7034	73.8246	-0	0	0	-33.9074	985.17	192.539	-200	0	0	-0	0	200	-0	200	0	
187	2.65	222.642	1361.2	239.593	53.6314	1418.84	237.353	152.334	1370.04	412.895	145.293	1383.58	62.696	258.103	1188.27	238.514	-17.103	1233.41	218.573	170.031	948.178	354.185	191.979	959.208	80.5166	-26.109	986.25	232.679	-21.3086	986.27	154.803	-22.4366	1035.55	198.45	74.5005	1057.17	493.042	-0	0	0	-0	0	0	-0	0	0	101.787	779.789	490.313	116.843	784.402	450.966	54.7135	789.174	489.151	253.082	1066.51	-28.1389	-0	0	0	-0	0	0	-0	0	0	446.401	883.4880000000001	17.5941	403.368	868.061	-2.05387	427.497	901.527	59.466	95.8382	774.644	49.2049	60.8884	555.775	88.7991	129.839	634.932	106.53	-0	0	0	-0	0	0	60.1262	439.753	145.797	-39.8082	424.093	78.25060000000001	-230.553	230.618	75.6978	-113.119	298.637	147.457	-0	0	0	-0	0	0	131.209	773.299	375.253	237.155	582.336	336.728	251.637	724.1609999999999	358.461	-0	0	0	-0	0	0	342.562	530.808	270.516	256.462	389.759	352.76	298.882	186.1	339.497	337.62	321.293	269.567	-0	0	0	-0	0	0	238.283	60.3152	286.195	536.905	64.9616	287.936	461.486	41.8899	234.648	450.452	34.4276	351.16	340.054	28.2943	338.195	397.644	124.16	292.443	502.268	50.8128	245.148	497.357	47.4597	336.261	-369.639	168.5	125.89	-118.016	33.8946	128.149	-194.826	34.5471	177.508	-205.143	37.7529	63.5374	-301.538	86.6942	70.2247	-197.357	134.691	121.546	-160.941	28.2906	169.032	-157.157	25.7109	73.812	-0	0	0	-23.7088	986.26	193.741	-200	0	0	-0	0	200	-0	200	0	
188	2.658333	232.817	1362.79	241.704	63.8094	1420.36	239.218	162.559	1370.92	414.529	155.764	1385.24	64.6319	268.184	1189.71	240.339	-7.02386	1234.73	219.614	180.081	950.381	355.738	202.273	959.8440000000001	82.22580000000001	-16.0577	987.472	233.929	-11.2024	987.351	155.803	-12.306	1036.71	199.412	85.4525	1057.92	494.412	-0	0	0	-0	0	0	-0	0	0	112.451	780.513	490.988	126.754	784.9299999999999	451.276	65.4692	790.005	489.916	262.681	1068.14	-25.8845	-0	0	0	-0	0	0	-0	0	0	453.182	882.079	19.2898	410.052	867.028	-0.306039	434.567	900.112	61.4002	109.39	774.147	51.2305	77.48390000000001	555.003	88.2773	145.061	635.432	106.483	-0	0	0	-0	0	0	80.84229999999999	440.807	140.321	-23.3503	424.068	77.1846	-219.045	236.405	74.8969	-99.01649999999999	300.133	146.44	-0	0	0	-0	0	0	141.965	775.164	376.493	246.618	583.393	337.71	261.98	725.333	359.197	-0	0	0	-0	0	0	351.212	530.54	271	262.921	391.047	353.568	301.547	186.489	339.529	343.093	321.46	269.884	-0	0	0	-0	0	0	238.582	60.7274	286.332	537.508	62.9436	287.728	461.526	40.8372	234.211	450.737	33.389	350.747	339.902	27.8884	338.024	398.711	123.632	292.22	503.213	49.6284	244.945	497.847	46.2192	335.948	-358.336	180.425	125.565	-115.952	31.5521	128.288	-192.468	35.5826	177.295	-201.918	40.078	63.2919	-295.235	94.7923	69.6835	-189.02	136.156	121.943	-159.671	27.9056	168.971	-155.402	25.0789	73.8813	-0	0	0	-13.63	987.4109999999999	194.866	-200	0	0	-0	0	200	-0	200	0	
189	2.666667	242.618	1364.17	243.294	73.9282	1421.76	240.932	173.124	1371.91	416.118	166.445	1386.79	66.64790000000001	277.983	1191.02	241.882	2.89753	1236.01	220.402	190.241	952.45	356.882	212.257	960.332	83.9438	-6.07545	988.803	235.142	-1.31419	988.575	156.955	-2.20072	1037.98	200.477	96.47329999999999	1058.73	495.628	-0	0	0	-0	0	0	-0	0	0	123.386	781.222	491.667	136.953	785.371	451.573	76.3578	791.001	490.983	271.99	1069.6	-23.8631	-0	0	0	-0	0	0	-0	0	0	459.578	880.461	20.7712	416.374	866.035	0.96502	441.064	898.3819999999999	62.8896	122.741	773.901	53.1807	94.5842	554.468	87.9564	160.85	636.092	106.236	-0	0	0	-0	0	0	99.67659999999999	440.358	137.979	-6.50234	423.803	76.9385	-206.171	241.166	74.62869999999999	-84.185	301.712	145.392	-0	0	0	-0	0	0	152.427	776.753	378.184	255.541	584	338.495	271.512	725.896	360.264	-0	0	0	-0	0	0	359.246	530.375	271.167	269.257	391.894	353.761	304.327	186.655	339.655	348.1	321.371	269.978	-0	0	0	-0	0	0	238.694	60.8731	286.362	538.124	61.3724	287.803	461.449	39.3729	234.074	450.773	32.6986	350.667	340.231	28.1463	337.965	399.599	123.04	291.671	503.555	48.2629	244.569	498.182	45.3591	335.637	-345.945	193.337	125.112	-114.828	30.934	128.918	-190.484	37.9532	178.545	-199.545	41.8981	64.4909	-288.681	102.933	70.2101	-179.708	137.34	122.15	-159.13	27.7276	168.912	-153.954	25.6764	74.0077	-0	0	0	-3.69482	988.689	196.049	-200	0	0	-0	0	200	-0	200	0	
190	2.675	252.508	1365.58	244.998	83.86020000000001	1423.21	242.474	183.472	1373.01	417.424	176.604	1388.42	68.2436	287.641	1192.34	243.353	12.7816	1237.17	221.457	200.486	954.3099999999999	358.34	222.335	961.329	85.5733	3.98457	990.116	236.74	8.64446	989.7430000000001	158.168	7.89713	1039.21	201.869	107.788	1059.63	496.788	-0	0	0	-0	0	0	-0	0	0	134.374	781.995	492.137	147.999	786.519	452.227	87.45699999999999	792.004	491.899	280.874	1071.06	-22.0432	-0	0	0	-0	0	0	-0	0	0	465.598	878.646	22.1317	422.251	865.026	2.04553	447.074	896.282	64.37350000000001	136.194	773.62	54.635	111.81	553.686	86.995	176.805	636.657	105.569	-0	0	0	-0	0	0	117.484	438.453	136.862	11.0142	423.712	76.3167	-192.557	245.842	74.8139	-68.9975	303.437	144.54	-0	0	0	-0	0	0	162.53	777.956	379.968	263.55	584.409	339.028	280.546	726.026	361.4	-0	0	0	-0	0	0	366.66	529.965	271.314	275.124	392.254	353.757	306.717	186.767	339.421	352.368	320.639	269.731	-0	0	0	-0	0	0	238.934	61.0431	285.852	538.192	60.6893	286.981	461.767	38.2275	234.46	450.679	32.433	351.062	340.329	28.2409	338.085	400.16	122.595	291.255	503.793	47.2939	244.268	498.406	44.7691	335.419	-332.099	206.259	125.464	-113.312	29.8693	129.537	-187.542	40.3061	177.718	-196.028	45.9148	63.6885	-280.618	112.544	69.7509	-169.789	139.188	122.284	-158.142	27.8417	168.387	-151.58	27.0707	73.86750000000001	-0	0	0	6.31452	989.929	197.454	-200	0	0	-0	0	200	-0	200	0	
191	2.683333	261.901	1366.89	246.151	93.682	1424.56	243.736	193.616	1374.24	418.687	186.593	1389.86	69.861	297.1	1193.56	244.531	22.6182	1238.63	222.419	210.567	956.644	359.573	232.022	961.803	87.2046	13.785	991.462	238.149	18.347	990.948	159.543	17.7622	1040.5	203.017	119.171	1060.61	498.054	-0	0	0	-0	0	0	-0	0	0	145.992	782.843	493.044	159.571	787.77	453.102	99.0775	793.019	493.03	289.485	1072.38	-20.7053	-0	0	0	-0	0	0	-0	0	0	471.053	876.756	23.4121	427.721	863.992	2.7299	452.235	893.9930000000001	65.5748	149.532	773.313	55.8065	128.93	553.343	86.14360000000001	193.097	637.463	104.936	-0	0	0	-0	0	0	136.446	437.795	134.103	28.5948	423.788	75.6105	-178.92	251.309	75.0265	-53.4407	305.435	143.844	-0	0	0	-0	0	0	172.24	779.02	381.866	270.962	584.607	339.321	289.028	725.338	362.74	-0	0	0	-0	0	0	373.543	528.87	271.043	280.056	392.614	354.042	309	186.575	339.096	355.929	319.597	269.21	-0	0	0	-0	0	0	239.036	61.0241	285.627	538.454	59.8423	286.495	461.824	37.2069	234.495	450.649	32.0876	351.12	340.387	28.2634	338.071	400.604	122.138	290.794	503.877	46.3484	243.789	498.632	44.2446	335.083	-317.557	219.583	125.096	-110.417	28.3308	129.686	-184.988	43.6426	176.461	-191.405	51.649	62.4398	-271.116	123.805	68.7949	-159.685	141.888	122.978	-155.785	28.8123	167.207	-148.54	29.3607	73.82129999999999	-0	0	0	16.066	991.205	198.846	-200	0	0	-0	0	200	-0	200	0	
